<svg width="128" height="128" viewBox="0 0 128 128" fill="none" xmlns="http://www.w3.org/2000/svg">
<rect width="128" height="128" rx="64" fill="#FFF0F8"/>
<mask id="mask0_9_1178" style="mask-type:luminance" maskUnits="userSpaceOnUse" x="-16" y="-16" width="160" height="160">
<rect x="-16" y="-16" width="160" height="160" rx="80" fill="white"/>
<rect width="128" height="128" rx="64" fill="white"/>
<mask id="mask1_9_1178" style="mask-type:luminance" maskUnits="userSpaceOnUse" x="-16" y="-16" width="160" height="160">
<rect x="-16" y="-16" width="160" height="160" rx="80" fill="white"/>
<rect width="128" height="128" rx="64" fill="white"/>
<mask id="mask2_9_1178" style="mask-type:luminance" maskUnits="userSpaceOnUse" x="-16" y="-16" width="160" height="160">
<rect x="-16" y="-16" width="160" height="160" rx="80" fill="white"/>
<rect width="128" height="128" rx="64" fill="white"/>
<mask id="mask3_9_1178" style="mask-type:luminance" maskUnits="userSpaceOnUse" x="-16" y="-16" width="160" height="160">
<path d="M144 -16H-16V144H144V-16Z" fill="white"/>
</mask>
<g mask="url(#mask3_9_1178)">
<path d="M93.1992 36.5618L64.9577 28.0891C64.5621 27.9703 64.1408 27.9703 63.7453 28.0891L35.5027 36.5618C34.6111 36.8294 34 37.6507 34 38.582V69.6483C34 73.6893 35.6358 77.8253 38.8619 81.9427C41.3258 85.087 44.7346 88.2445 48.9935 91.3273C56.1478 96.5063 63.1932 99.6832 63.4896 99.8156C63.7636 99.9385 64.0576 100 64.3513 100C64.6453 100 64.9394 99.9389 65.2133 99.8156C65.5094 99.6832 72.5544 96.5063 79.7094 91.3273C83.968 88.2445 87.3768 85.087 89.8407 81.9427C93.0668 77.8257 94.7026 73.6893 94.7026 69.6483V38.582C94.7026 37.6507 94.0918 36.8294 93.1992 36.5618Z" fill="white"/>
<path d="M72.774 57.6324H54.6381C52.1872 57.6324 50.1816 59.638 50.1816 62.0886V73.9102C50.1816 76.3611 52.1872 78.3666 54.6381 78.3666H72.774C75.2249 78.3666 77.2305 76.3611 77.2305 73.9102V62.0886C77.2305 59.638 75.2249 57.6324 72.774 57.6324ZM63.7061 71.6887C61.9305 71.6887 60.4904 70.2486 60.4904 68.4728C60.4904 66.6966 61.9305 65.2571 63.7061 65.2571C65.4826 65.2571 66.9217 66.6966 66.9217 68.4728C66.9217 70.2486 65.4826 71.6887 63.7061 71.6887Z" fill="white"/>
<path d="M56.3541 58.9184C55.6453 58.7547 55.1068 58.1302 55.0836 57.3688L54.9564 53.2366C54.8105 48.4694 58.5704 44.4724 63.3376 44.3261C68.1047 44.1802 72.1022 47.9396 72.2481 52.7067L72.3661 56.5711C72.3941 57.4776 71.6817 58.2348 70.7754 58.2625C69.8699 58.2904 69.1123 57.5782 69.0846 56.6719L68.966 52.8073C68.8752 49.8498 66.3958 47.5172 63.4383 47.6077C60.4808 47.6985 58.1481 50.1785 58.2385 53.1359L58.3654 57.2684C58.3934 58.1745 57.6811 58.9318 56.7747 58.9595C56.6301 58.964 56.4889 58.9495 56.3541 58.9184Z" fill="white"/>
</g>
</mask>
<g mask="url(#mask2_9_1178)">
<path d="M93.1992 36.5618L64.9577 28.0891C64.5621 27.9703 64.1408 27.9703 63.7453 28.0891L35.5027 36.5618C34.6111 36.8294 34 37.6507 34 38.582V69.6483C34 73.6893 35.6358 77.8253 38.8619 81.9427C41.3258 85.087 44.7346 88.2445 48.9935 91.3273C56.1478 96.5063 63.1932 99.6832 63.4896 99.8156C63.7636 99.9385 64.0576 100 64.3513 100C64.6453 100 64.9394 99.9389 65.2133 99.8156C65.5094 99.6832 72.5544 96.5063 79.7094 91.3273C83.968 88.2445 87.3768 85.087 89.8407 81.9427C93.0668 77.8257 94.7026 73.6893 94.7026 69.6483V38.582C94.7026 37.6507 94.0918 36.8294 93.1992 36.5618Z" fill="white"/>
<path d="M72.774 57.6324H54.6381C52.1872 57.6324 50.1816 59.638 50.1816 62.0886V73.9102C50.1816 76.3611 52.1872 78.3666 54.6381 78.3666H72.774C75.2249 78.3666 77.2305 76.3611 77.2305 73.9102V62.0886C77.2305 59.638 75.2249 57.6324 72.774 57.6324ZM63.7061 71.6887C61.9305 71.6887 60.4904 70.2486 60.4904 68.4728C60.4904 66.6966 61.9305 65.2571 63.7061 65.2571C65.4826 65.2571 66.9217 66.6966 66.9217 68.4728C66.9217 70.2486 65.4826 71.6887 63.7061 71.6887Z" fill="white"/>
<path d="M56.3541 58.9184C55.6453 58.7547 55.1068 58.1302 55.0836 57.3688L54.9564 53.2366C54.8105 48.4694 58.5704 44.4724 63.3376 44.3261C68.1047 44.1802 72.1022 47.9396 72.2481 52.7067L72.3661 56.5711C72.3941 57.4776 71.6817 58.2348 70.7754 58.2625C69.8699 58.2904 69.1123 57.5782 69.0846 56.6719L68.966 52.8073C68.8752 49.8498 66.3958 47.5172 63.4383 47.6077C60.4808 47.6985 58.1481 50.1785 58.2385 53.1359L58.3654 57.2684C58.3934 58.1745 57.6811 58.9318 56.7747 58.9595C56.6301 58.964 56.4889 58.9495 56.3541 58.9184Z" fill="white"/>
</g>
</mask>
<g mask="url(#mask1_9_1178)">
<path d="M93.1992 36.5618L64.9577 28.0891C64.5621 27.9703 64.1408 27.9703 63.7453 28.0891L35.5027 36.5618C34.6111 36.8294 34 37.6507 34 38.582V69.6483C34 73.6893 35.6358 77.8253 38.8619 81.9427C41.3258 85.087 44.7346 88.2445 48.9935 91.3273C56.1478 96.5063 63.1932 99.6832 63.4896 99.8156C63.7636 99.9385 64.0576 100 64.3513 100C64.6453 100 64.9394 99.9389 65.2133 99.8156C65.5094 99.6832 72.5544 96.5063 79.7094 91.3273C83.968 88.2445 87.3768 85.087 89.8407 81.9427C93.0668 77.8257 94.7026 73.6893 94.7026 69.6483V38.582C94.7026 37.6507 94.0918 36.8294 93.1992 36.5618Z" fill="white"/>
<path d="M72.774 57.6324H54.6381C52.1872 57.6324 50.1816 59.638 50.1816 62.0886V73.9102C50.1816 76.3611 52.1872 78.3666 54.6381 78.3666H72.774C75.2249 78.3666 77.2305 76.3611 77.2305 73.9102V62.0886C77.2305 59.638 75.2249 57.6324 72.774 57.6324ZM63.7061 71.6887C61.9305 71.6887 60.4904 70.2486 60.4904 68.4728C60.4904 66.6966 61.9305 65.2571 63.7061 65.2571C65.4826 65.2571 66.9217 66.6966 66.9217 68.4728C66.9217 70.2486 65.4826 71.6887 63.7061 71.6887Z" fill="white"/>
<path d="M56.3541 58.9184C55.6453 58.7547 55.1068 58.1302 55.0836 57.3688L54.9564 53.2366C54.8105 48.4694 58.5704 44.4724 63.3376 44.3261C68.1047 44.1802 72.1022 47.9396 72.2481 52.7067L72.3661 56.5711C72.3941 57.4776 71.6817 58.2348 70.7754 58.2625C69.8699 58.2904 69.1123 57.5782 69.0846 56.6719L68.966 52.8073C68.8752 49.8498 66.3958 47.5172 63.4383 47.6077C60.4808 47.6985 58.1481 50.1785 58.2385 53.1359L58.3654 57.2684C58.3934 58.1745 57.6811 58.9318 56.7747 58.9595C56.6301 58.964 56.4889 58.9495 56.3541 58.9184Z" fill="white"/>
</g>
</mask>
<g mask="url(#mask0_9_1178)">
<path d="M93.1992 36.5618L64.9577 28.0891C64.5621 27.9703 64.1408 27.9703 63.7453 28.0891L35.5027 36.5618C34.6111 36.8294 34 37.6507 34 38.582V69.6483C34 73.6893 35.6358 77.8253 38.8619 81.9427C41.3258 85.087 44.7346 88.2445 48.9935 91.3273C56.1478 96.5063 63.1932 99.6832 63.4896 99.8156C63.7636 99.9385 64.0576 100 64.3513 100C64.6453 100 64.9394 99.9389 65.2133 99.8156C65.5094 99.6832 72.5544 96.5063 79.7094 91.3273C83.968 88.2445 87.3768 85.087 89.8407 81.9427C93.0668 77.8257 94.7026 73.6893 94.7026 69.6483V38.582C94.7026 37.6507 94.0918 36.8294 93.1992 36.5618Z" fill="#A10459"/>
<path d="M72.774 57.6324H54.6381C52.1872 57.6324 50.1816 59.638 50.1816 62.0886V73.9102C50.1816 76.3611 52.1872 78.3666 54.6381 78.3666H72.774C75.2249 78.3666 77.2305 76.3611 77.2305 73.9102V62.0886C77.2305 59.638 75.2249 57.6324 72.774 57.6324ZM63.7061 71.6887C61.9305 71.6887 60.4904 70.2486 60.4904 68.4728C60.4904 66.6966 61.9305 65.2571 63.7061 65.2571C65.4826 65.2571 66.9217 66.6966 66.9217 68.4728C66.9217 70.2486 65.4826 71.6887 63.7061 71.6887Z" fill="white"/>
<path d="M56.3541 58.9184C55.6453 58.7547 55.1068 58.1302 55.0836 57.3688L54.9564 53.2366C54.8105 48.4694 58.5704 44.4724 63.3376 44.3261C68.1047 44.1802 72.1022 47.9396 72.2481 52.7067L72.3661 56.5711C72.3941 57.4776 71.6817 58.2348 70.7754 58.2625C69.8699 58.2904 69.1123 57.5782 69.0846 56.6719L68.966 52.8073C68.8752 49.8498 66.3958 47.5172 63.4383 47.6077C60.4808 47.6985 58.1481 50.1785 58.2385 53.1359L58.3654 57.2684C58.3934 58.1745 57.6811 58.9318 56.7747 58.9595C56.6301 58.964 56.4889 58.9495 56.3541 58.9184Z" fill="white"/>
</g>
</svg>
