<svg width="134" height="101" viewBox="0 0 134 101" fill="none" xmlns="http://www.w3.org/2000/svg">
<path d="M133.667 88.3728H0.333984V88.3061H133.667V88.3728Z" fill="#EAEAEA"/>
<path d="M77.7229 90.1887H84.512V90.1221H77.7229V90.1887Z" fill="#EAEAEA"/>
<path d="M105.697 91.6317H121.786V91.5651H105.697V91.6317Z" fill="#EAEAEA"/>
<path d="M59.6565 90.2221H76.2786V90.1554H59.6565V90.2221Z" fill="#EAEAEA"/>
<path d="M45.4004 92.2171H48.878V92.1504H45.4004V92.2171Z" fill="#EAEAEA"/>
<path d="M52.2559 92.2171H68.0895V92.1504H52.2559V92.2171Z" fill="#EAEAEA"/>
<path d="M14.3223 91.0912H24.5767V91.0245H14.3223V91.0912Z" fill="#EAEAEA"/>
<path d="M63.5386 76.4133H12.0456C11.2064 76.4133 10.5234 75.7306 10.5234 74.8912V2.50929C10.5234 1.67009 11.2064 0.987427 12.0456 0.987427H63.5386C64.3776 0.987427 65.0605 1.67009 65.0605 2.50929V74.8912C65.0605 75.7306 64.3776 76.4133 63.5386 76.4133ZM12.0456 1.05409C11.2429 1.05409 10.5901 1.70689 10.5901 2.50929V74.8912C10.5901 75.6938 11.2429 76.3466 12.0456 76.3466H63.5386C64.341 76.3466 64.9938 75.6938 64.9938 74.8912V2.50929C64.9938 1.70689 64.341 1.05409 63.5386 1.05409H12.0456Z" fill="#EAEAEA"/>
<path d="M121.216 76.4133H69.723C68.8841 76.4133 68.2012 75.7306 68.2012 74.8912V2.50929C68.2012 1.67009 68.8841 0.987427 69.723 0.987427H121.216C122.056 0.987427 122.738 1.67009 122.738 2.50929V74.8912C122.738 75.7306 122.056 76.4133 121.216 76.4133ZM69.723 1.05409C68.9206 1.05409 68.2678 1.70689 68.2678 2.50929V74.8912C68.2678 75.6938 68.9206 76.3466 69.723 76.3466H121.216C122.019 76.3466 122.672 75.6938 122.672 74.8912V2.50929C122.672 1.70689 122.019 1.05409 121.216 1.05409H69.723Z" fill="#EAEAEA"/>
<path d="M52.5885 65.1778H34.8816L33.8066 52.7778H51.5136L52.5885 65.1778Z" fill="#E5E5E5"/>
<path d="M53.5062 65.1778H35.7995L34.7246 52.7778H52.4313L53.5062 65.1778Z" fill="#EFEFEF"/>
<path d="M38.2191 62.5149L37.6287 55.4405H50.01L50.6001 62.5149H38.2191Z" fill="white"/>
<path d="M56.5698 88.3059H54.4922V65.1779H56.5698V88.3059Z" fill="#E5E5E5"/>
<path d="M57.2259 88.3059H55.7832V65.1779H57.2259V88.3059Z" fill="#EFEFEF"/>
<path d="M37.1152 67.7304H57.2243V65.1779H37.1152V67.7304Z" fill="#EFEFEF"/>
<path d="M37.8276 88.3058H35.75V67.7303H37.8276V88.3058Z" fill="#E5E5E5"/>
<path d="M38.482 88.3058H37.0391V67.7303H38.482V88.3058Z" fill="#EFEFEF"/>
<path d="M23.0385 88.3059H20.9609V67.7304H23.0385V88.3059Z" fill="#E5E5E5"/>
<path d="M23.6949 88.3058H22.252V67.7303H23.6949V88.3058Z" fill="#EFEFEF"/>
<path d="M43.4214 88.3058H41.3438V67.7303H43.4214V88.3058Z" fill="#E5E5E5"/>
<path d="M44.0774 88.3058H42.6348V67.7303H44.0774V88.3058Z" fill="#EFEFEF"/>
<path d="M37.1161 67.7304H20.9609V65.1779H37.1161V67.7304Z" fill="#E5E5E5"/>
<path d="M97.3574 42.2984H34.8691V7.51038H97.3574V42.2984Z" fill="#E0E0E0"/>
<path d="M100.79 42.2984H35.1855V7.51038H100.79V42.2984Z" fill="#F4F4F4"/>
<path d="M99.7161 41.2267V8.58215H36.2559V41.2267H99.7161Z" fill="white"/>
<path d="M61.9513 41.2266L73.9324 8.58209H54.1593L42.178 41.2266H61.9513Z" fill="#F4F4F4"/>
<path d="M80.9846 41.2266L92.9657 8.58209H78.0494L66.0684 41.2266H80.9846Z" fill="#F4F4F4"/>
<path d="M117.161 88.3061H111.85V55.0808H117.161V88.3061Z" fill="#E5E5E5"/>
<path d="M115.765 88.3061H117.162V85.748H114.301L115.765 88.3061Z" fill="#F9F9F9"/>
<path d="M68.1867 88.3061H62.875V55.0808H68.1867V88.3061Z" fill="#E5E5E5"/>
<path d="M117.163 87.616H66.9688V55.0808H117.163V87.616Z" fill="#F9F9F9"/>
<path d="M116.212 65.5784H67.918V56.3896H116.212V65.5784ZM68.1846 65.3117H115.945V56.6563H68.1846V65.3117Z" fill="#E5E5E5"/>
<path d="M107.71 60.851H77.3577C75.9481 60.851 74.591 59.7139 73.635 57.7315L73.5427 57.5403H111.525L111.433 57.7315C110.477 59.7139 109.12 60.851 107.71 60.851ZM73.9699 57.8069C74.8723 59.5752 76.099 60.5843 77.3577 60.5843H107.71C108.969 60.5843 110.196 59.5752 111.098 57.8069H73.9699Z" fill="#E5E5E5"/>
<path d="M68.3656 88.3062H66.9688V85.748H69.8298L68.3656 88.3062Z" fill="#F9F9F9"/>
<path d="M116.212 75.9429H67.918V66.7538H116.212V75.9429ZM68.1846 75.6762H115.945V67.0205H68.1846V75.6762Z" fill="#E5E5E5"/>
<path d="M107.71 71.2152H77.3577C75.9481 71.2152 74.591 70.0781 73.635 68.0957L73.5427 67.9045H111.525L111.433 68.0957C110.477 70.0781 109.12 71.2152 107.71 71.2152ZM73.9699 68.1712C74.8723 69.9395 76.099 70.9485 77.3577 70.9485H107.71C108.969 70.9485 110.196 69.9395 111.098 68.1712H73.9699Z" fill="#E5E5E5"/>
<path d="M116.212 86.3072H67.918V77.1182H116.212V86.3072ZM68.1846 86.0406H115.945V77.3848H68.1846V86.0406Z" fill="#E5E5E5"/>
<path d="M107.71 81.5795H77.3577C75.9481 81.5795 74.591 80.4427 73.635 78.4603L73.5427 78.2688H111.525L111.433 78.4603C110.477 80.4427 109.12 81.5795 107.71 81.5795ZM73.9699 78.5355C74.8723 80.3037 76.099 81.3128 77.3577 81.3128H107.71C108.969 81.3128 110.196 80.3037 111.098 78.5355H73.9699Z" fill="#E5E5E5"/>
<path d="M32.596 59.4755V60.1203H32.1832L31.8424 65.1779H26.8197L26.4792 60.1203H26.0664V59.4755H32.596Z" fill="#E5E5E5"/>
<path d="M30.9423 46.9229C30.5295 43.9104 26.4639 43.0496 21.3044 42.9394C16.3948 42.8346 14.8223 41.0973 14.8223 41.0973C14.8223 41.0973 14.8377 48.1317 21.9121 50.6786C28.6297 53.097 31.3559 49.9408 30.9423 46.9229Z" fill="#E5E5E5"/>
<path d="M28.4335 53.753C28.5197 52.5138 30.4981 50.2367 35.2567 51.2719C38.6978 52.0204 39.977 50.2367 39.977 50.2367C39.977 50.2367 39.6583 55.2711 34.4834 56.7847C29.5695 58.222 28.2821 55.9319 28.4335 53.753Z" fill="#E5E5E5"/>
<path d="M29.5202 61.3744C29.5722 61.3744 29.6242 61.3522 29.6604 61.3093C30.0055 60.9016 29.7234 59.9253 29.3327 58.5738C28.8314 56.8397 28.2076 54.681 28.7359 53.1138C29.034 52.229 29.4028 51.4488 29.7596 50.6944C30.5066 49.1146 31.1516 47.7506 30.6138 46.3258C30.578 46.2309 30.4722 46.1832 30.3772 46.2189C30.2826 46.2546 30.2346 46.3608 30.2703 46.4554C30.7532 47.7344 30.1684 48.9714 29.4279 50.5376C29.0834 51.2658 28.6932 52.0914 28.3882 52.9965C27.8231 54.6728 28.4644 56.8922 28.9799 58.6757C29.2839 59.7274 29.598 60.8146 29.3802 61.0722C29.3148 61.1496 29.3244 61.2656 29.4018 61.3309C29.4362 61.36 29.4783 61.3744 29.5202 61.3744Z" fill="#E5E5E5"/>
<path d="M107.492 32.8184C105.681 47.276 93.0127 61.7115 79.0833 71.0088C43.0724 95.2261 8.27987 54.1317 17.0591 39.372C23.6492 24.4002 44.2017 28.5131 52.9452 22.6274C102.089 -10.6854 109.197 20.7186 107.492 32.8184Z" fill="#A01F5D"/>
<g opacity="0.9">
<path d="M107.492 32.8184C105.681 47.276 93.0127 61.7115 79.0833 71.0088C43.0724 95.2261 8.27987 54.1317 17.0591 39.372C23.6492 24.4002 44.2017 28.5131 52.9452 22.6274C102.089 -10.6854 109.197 20.7186 107.492 32.8184Z" fill="white"/>
</g>
<path d="M118.704 97.3301C118.704 98.9978 95.5558 100.35 67.0006 100.35C38.4454 100.35 15.2969 98.9978 15.2969 97.3301C15.2969 95.6626 38.4454 94.3106 67.0006 94.3106C95.5558 94.3106 118.704 95.6626 118.704 97.3301Z" fill="#F4F4F4"/>
<path d="M66.99 82.7224H29.1233L27.0508 21.8243H64.9174L66.99 82.7224Z" fill="#A01F5D"/>
<path d="M68.8806 80.8308H31.0139L28.9414 19.9326H66.8081L68.8806 80.8308Z" fill="#A01F5D"/>
<g opacity="0.3">
<path d="M68.8806 80.8308H31.0139L28.9414 19.9326H66.8081L68.8806 80.8308Z" fill="white"/>
</g>
<path d="M59.1195 37.401C59.3198 43.2837 54.7134 48.0525 48.8307 48.0525C42.9481 48.0525 38.0169 43.2837 37.8166 37.401C37.6163 31.5184 42.223 26.7496 48.1057 26.7496C53.9883 26.7496 58.9193 31.5184 59.1195 37.401Z" fill="#A01F5D"/>
<path d="M57.2587 37.4C57.3104 38.9181 56.9739 40.3435 56.339 41.5875C54.9494 44.3275 52.1088 46.1909 48.767 46.1909C45.4251 46.1909 42.4579 44.3275 40.8816 41.5875C40.1622 40.3435 39.7286 38.9181 39.6768 37.4C39.5115 32.544 43.3128 28.6091 48.1686 28.6091C53.0243 28.6091 57.0934 32.544 57.2587 37.4Z" fill="white"/>
<g opacity="0.6">
<path d="M56.3396 41.5874C54.95 44.3274 52.1098 46.1909 48.7679 46.1909C45.426 46.1909 42.4588 44.3274 40.8826 41.5874C43.0455 40.109 45.6719 39.2458 48.5314 39.2458C51.3908 39.2458 54.0762 40.109 56.3396 41.5874Z" fill="#A01F5D"/>
</g>
<g opacity="0.6">
<path d="M52.2808 34.3925C52.3544 36.5551 50.6611 38.3082 48.4984 38.3082C46.3357 38.3082 44.5229 36.5551 44.4493 34.3925C44.3757 32.2298 46.0691 30.4767 48.2317 30.4767C50.3944 30.4767 52.2072 32.2298 52.2808 34.3925Z" fill="#A01F5D"/>
</g>
<path d="M61.2745 58.7774H37.1185L36.9551 53.9774H61.1111L61.2745 58.7774Z" fill="white"/>
<path d="M61.5656 67.3569H37.4096L37.2461 62.5569H61.4021L61.5656 67.3569Z" fill="white"/>
<path d="M57.5779 74.0779H41.8544L41.748 70.9536H57.4715L57.5779 74.0779Z" fill="#A01F5D"/>
<g opacity="0.01">
<path d="M39.534 63.6409C40.1963 63.6409 40.734 64.1786 40.734 64.8409C40.734 65.5031 40.1963 66.0409 39.534 66.0409C38.8717 66.0409 38.334 65.5031 38.334 64.8409C38.334 64.1786 38.8717 63.6409 39.534 63.6409Z" fill="#A01F5D"/>
</g>
<path d="M39.9543 57.632C40.557 57.632 41.0316 57.2854 41.0316 56.576V55.1067H40.5436V56.52C40.5436 56.9787 40.3143 57.1787 39.957 57.1787C39.5996 57.1787 39.373 56.9787 39.373 56.52V55.1067H38.877V56.576C38.877 57.2854 39.3516 57.632 39.9543 57.632Z" fill="#FF429E"/>
<path d="M42.4072 57.1947C42.0872 57.1947 41.9005 57.0853 41.8738 56.8907H41.3965C41.4338 57.352 41.8072 57.6293 42.4018 57.6293C42.9805 57.6293 43.3698 57.3707 43.3698 56.8613C43.3698 56.4933 43.1645 56.264 42.6605 56.1653L42.3805 56.1067C42.0765 56.0507 41.9352 55.9733 41.9352 55.792C41.9352 55.6 42.0978 55.5013 42.3645 55.5013C42.6178 55.5013 42.7885 55.5973 42.8205 55.768H43.2952C43.2525 55.3493 42.9298 55.0693 42.3592 55.0693C41.7725 55.0693 41.4418 55.352 41.4418 55.792C41.4418 56.1707 41.6765 56.416 42.1858 56.5147L42.4632 56.5707C42.7645 56.6293 42.8738 56.728 42.8738 56.8907C42.8738 57.0827 42.6925 57.1947 42.4072 57.1947Z" fill="#FF429E"/>
<path d="M45.5731 57.5894V57.1494H44.2211V56.56H45.4665V56.1227H44.2211V55.5467H45.5545V55.1067H43.7305V57.5894H45.5731Z" fill="#FF429E"/>
<path d="M46.4926 56.32V55.544H47.0713C47.394 55.544 47.5646 55.6854 47.5646 55.9307C47.5646 56.1814 47.394 56.32 47.0713 56.32H46.4926ZM46.4926 56.7574H46.8846L47.5246 57.5894H48.0793L47.4073 56.72C47.834 56.6214 48.0633 56.32 48.0633 55.9307C48.0633 55.448 47.738 55.1067 47.1166 55.1067H46.002V57.5894H46.4926V56.7574Z" fill="#FF429E"/>
<path d="M48.4766 55.104V57.5893H48.9619V55.8853L50.2339 57.592H50.6952V55.1067H50.2126V56.8133L48.9379 55.104H48.4766Z" fill="#FF429E"/>
<g opacity="0.3">
<path d="M90.6007 19.0847C90.6007 19.5418 90.0194 19.9122 89.3023 19.9122C88.5852 19.9122 88.0039 19.5418 88.0039 19.0847C88.0039 18.6276 88.5852 18.257 89.3023 18.257C90.0194 18.257 90.6007 18.6276 90.6007 19.0847Z" fill="#A01F5D"/>
</g>
<g opacity="0.6">
<path d="M97.4958 17.0687C97.4958 18.1821 96.0798 19.0847 94.3329 19.0847C92.5859 19.0847 91.1699 18.1821 91.1699 17.0687C91.1699 15.9554 92.5859 15.0527 94.3329 15.0527C96.0798 15.0527 97.4958 15.9554 97.4958 17.0687Z" fill="#A01F5D"/>
</g>
<path d="M111.791 9.35538C111.791 12.7428 107.482 15.4887 102.168 15.4887C96.8529 15.4887 92.5447 12.7428 92.5447 9.35538C92.5447 5.96818 96.8529 3.22205 102.168 3.22205C107.482 3.22205 111.791 5.96818 111.791 9.35538Z" fill="#A01F5D"/>
<path d="M98.5138 12.1895C97.9804 12.1533 97.4705 11.9583 97.0392 11.6192C96.4607 11.1646 96.1002 10.5104 96.0241 9.77715C95.8792 8.37558 96.8927 7.05775 98.284 6.83952C99.4295 6.66044 100.542 7.219 101.082 8.23656L107.332 7.38312C107.838 7.31407 108.326 7.64624 108.417 8.12417C108.465 8.37842 108.409 8.63334 108.258 8.84255C108.107 9.05202 107.884 9.18652 107.628 9.22129L107.464 9.24383C107.415 9.25038 107.374 9.27671 107.348 9.31822C107.321 9.3592 107.315 9.40927 107.329 9.45567L107.418 9.74559C107.479 9.94189 107.396 10.1525 107.22 10.2461C107.083 10.3191 106.983 10.4535 106.955 10.6061C106.921 10.7929 106.785 10.9297 106.61 10.9536L106.481 10.9711C106.307 10.9945 106.139 10.9003 106.055 10.7294C105.957 10.5297 105.743 10.4158 105.522 10.4459C105.3 10.4763 105.123 10.6436 105.081 10.8624C105.046 11.0495 104.91 11.1857 104.736 11.2094L104.61 11.2265C104.437 11.2503 104.268 11.1554 104.184 10.9848C104.115 10.8454 103.983 10.7424 103.831 10.709C103.636 10.6664 103.499 10.486 103.505 10.2801L103.513 9.97674C103.515 9.92766 103.495 9.88224 103.459 9.84956C103.422 9.81661 103.377 9.80229 103.326 9.80874L101.334 10.0808C101.092 11.1824 100.193 12.0165 99.0673 12.1702C98.8814 12.1955 98.6963 12.2019 98.5138 12.1895ZM98.3252 7.10291C97.0719 7.29952 96.1584 8.48703 96.2895 9.74974C96.3577 10.4105 96.6825 11 97.2039 11.4096C97.7254 11.8192 98.3743 11.9959 99.0315 11.9061C100.074 11.7636 100.902 10.9725 101.091 9.93763L101.109 9.84259L103.29 9.54462C103.416 9.52725 103.542 9.56604 103.637 9.65104C103.731 9.73577 103.783 9.85716 103.78 9.98416L103.772 10.2875C103.769 10.3643 103.819 10.4335 103.888 10.4485C104.122 10.5 104.317 10.6523 104.423 10.8669C104.449 10.9194 104.502 10.9721 104.574 10.9624L104.7 10.9453C104.772 10.9354 104.809 10.8703 104.82 10.8128C104.882 10.4813 105.15 10.2277 105.486 10.1818C105.821 10.1362 106.146 10.309 106.295 10.6115C106.321 10.664 106.373 10.717 106.445 10.7067L106.574 10.6892C106.645 10.6794 106.682 10.6148 106.693 10.5575C106.737 10.3221 106.883 10.123 107.094 10.0107C107.157 9.97773 107.186 9.89768 107.163 9.82449L107.074 9.53431C107.036 9.41283 107.054 9.28172 107.123 9.17465C107.191 9.06784 107.302 8.99655 107.428 8.97944L107.592 8.95691C107.775 8.93214 107.934 8.83633 108.042 8.687C108.149 8.53767 108.189 8.35516 108.155 8.17374C108.09 7.83308 107.736 7.59658 107.368 7.64748L100.928 8.52682L100.886 8.43978C100.417 7.47375 99.3891 6.93594 98.3252 7.10291ZM98.5841 11.2061C98.2547 11.1838 97.9393 11.0661 97.6701 10.8618C97.3066 10.5856 97.0727 10.1851 97.0112 9.73326C96.9492 9.28055 97.0671 8.83098 97.343 8.46804C97.6189 8.10536 98.0199 7.87173 98.472 7.80995C98.9247 7.74795 99.3741 7.86586 99.737 8.14149C100.1 8.41709 100.333 8.81811 100.395 9.27107C100.457 9.72298 100.339 10.172 100.064 10.535C99.7882 10.8985 99.3869 11.1326 98.9339 11.1944C98.8168 11.2105 98.6995 11.214 98.5841 11.2061ZM98.8055 8.06379C98.7073 8.05713 98.6076 8.06078 98.5078 8.07432C98.1263 8.12646 97.7879 8.32372 97.5552 8.62972C97.3224 8.93598 97.223 9.31465 97.275 9.69692C97.3272 10.0781 97.5245 10.4165 97.8312 10.6496C98.1378 10.8824 98.517 10.9822 98.8982 10.93C99.2802 10.8779 99.6186 10.6801 99.8514 10.3736C100.084 10.0673 100.183 9.6886 100.131 9.30712C100.079 8.92483 99.8816 8.58617 99.5756 8.3537C99.3494 8.18198 99.0832 8.08265 98.8055 8.06379Z" fill="white"/>
<path d="M81.109 23.8856C81.0689 24.0314 80.9588 24.1284 80.8636 24.1022C80.7684 24.0759 80.7236 23.9365 80.7638 23.7906C80.8039 23.6448 80.9137 23.5478 81.009 23.574C81.1042 23.6003 81.1492 23.7397 81.109 23.8856Z" fill="#36252D"/>
<path d="M80.9737 24.1323C80.9737 24.1323 80.4101 24.8824 79.9332 25.1879C80.1249 25.4998 80.5941 25.5105 80.5941 25.5105L80.9737 24.1323Z" fill="#A01F5C"/>
<path d="M81.8669 23.2228C81.8884 23.2243 81.9105 23.218 81.9286 23.2035C81.9668 23.1727 81.973 23.1167 81.9422 23.0785C81.634 22.6956 81.2258 22.7319 81.208 22.7336C81.1593 22.7386 81.1237 22.7821 81.1287 22.8308C81.1336 22.8795 81.1774 22.9149 81.2253 22.9104C81.2388 22.9092 81.558 22.8845 81.8039 23.1899C81.8202 23.21 81.8429 23.2212 81.8669 23.2228Z" fill="#36252D"/>
<path d="M85.0345 26.8581C84.6726 28.2088 84.3813 30.0944 85.2767 31.0734C85.2767 31.0734 84.8075 32.4366 82.2639 32.263C79.4666 32.072 81.0014 30.9523 81.0014 30.9523C82.1887 30.6709 82.269 29.3456 82.0758 28.2638L85.0345 26.8581Z" fill="#FF7ABA"/>
<path d="M86.0597 24.9161C85.4564 26.6773 85.1929 27.7386 84.0349 28.409C82.2931 29.4172 80.308 27.988 80.3729 26.0821C80.4315 24.3667 81.4079 21.7752 83.3577 21.545C85.2787 21.3183 86.6629 23.155 86.0597 24.9161Z" fill="#FF7ABA"/>
<path d="M81.8544 24.6982C81.782 24.4517 81.494 22.5695 81.9161 22.1148C82.3382 21.6601 86.7437 22.3087 87.3547 22.998C88.3682 24.1414 87.5494 25.0443 86.2755 26.1943C85.3176 27.0591 85.2123 28.1002 84.7506 28.2226C83.9416 28.4371 82.7324 28.1011 82.5442 27.2402C82.3557 26.3792 81.8544 24.6982 81.8544 24.6982Z" fill="#36252D"/>
<path d="M86.9634 20.8527C85.4432 20.0794 82.4576 20.6162 80.8988 20.1259C80.7861 20.9428 81.1916 22.2927 82.7523 22.7548C82.7523 22.7548 84.9723 23.3471 86.7179 23.3952C88.4632 23.4433 88.2542 21.5096 86.9634 20.8527Z" fill="#36252D"/>
<path d="M87.0603 23.0347C87.0603 23.0347 88.0213 23.2099 88.7376 22.8301C88.9831 23.5576 87.3605 23.6419 87.0603 23.0347Z" fill="#36252D"/>
<path d="M82.7024 24.8302C82.6402 25.3138 82.3834 25.7552 82.0919 26.0354C81.6534 26.4569 81.2468 26.1482 81.2118 25.5958C81.1803 25.0986 81.3706 24.2803 81.8864 24.0664C82.3944 23.8558 82.7735 24.2772 82.7024 24.8302Z" fill="#FF7ABA"/>
<path d="M89.3775 32.8082C89.7329 33.3776 90.0271 33.924 90.3321 34.4912C90.6359 35.0528 90.9103 35.6304 91.1799 36.2128C91.7103 37.3816 92.1849 38.5872 92.5399 39.8744C92.5873 40.0322 92.6233 40.1997 92.6631 40.3637L92.7215 40.6106L92.7505 40.7338L92.7849 40.937C92.8612 41.4786 92.7943 41.9208 92.7017 42.3106C92.5105 43.0877 92.2023 43.7077 91.8719 44.2992C91.1975 45.4701 90.4103 46.4674 89.5025 47.412L88.3796 46.5618C88.9332 45.5112 89.4804 44.4104 89.8828 43.352C90.0777 42.8256 90.2417 42.2898 90.2897 41.8501C90.3129 41.6338 90.2977 41.4482 90.2679 41.3789L90.1623 41.053C90.1183 40.9192 90.0796 40.7861 90.0268 40.6512C89.6425 39.5752 89.154 38.4944 88.6217 37.4288C88.0972 36.3672 87.5159 35.2864 86.9436 34.2776L89.3775 32.8082Z" fill="#FF7ABA"/>
<path d="M88.664 46.1799L87.4395 46.8301L88.8472 48.4781C88.8472 48.4781 89.7259 47.8837 89.7653 46.9759L88.664 46.1799Z" fill="#FF7ABA"/>
<path d="M85.793 47.8461L87.3012 49.0426L88.8482 48.4781L87.4404 46.8301L85.793 47.8461Z" fill="#FF7ABA"/>
<path d="M80.041 29.5701L80.0525 27.8224L82.3671 28.1021C82.3671 28.1021 82.3274 29.6051 81.0349 30.0469L80.041 29.5701Z" fill="#FF7ABA"/>
<path d="M80.7066 26.5637L82.3365 27.032L82.3674 28.1021L80.0527 27.8224L80.7066 26.5637Z" fill="#FF7ABA"/>
<g opacity="0.2">
<path d="M82.3373 27.032L80.708 26.5626L80.3906 27.1706C80.4306 28.2026 81.06 29.0506 81.8946 29.432C82.348 28.8373 82.3666 28.1013 82.3666 28.1013L82.3373 27.032Z" fill="black"/>
</g>
<path d="M85.8131 31.8887C86.0627 31.5351 86.0526 30.4181 85.7862 30.221C85.3558 29.9029 83.515 29.8295 81.0353 30.3999C81.3022 31.4821 80.7305 32.0493 80.7305 32.0493L85.8131 31.8887Z" fill="#A01F5D"/>
<path d="M94.1476 95.1964C93.9594 95.2372 93.7714 95.2479 93.6807 95.1708C93.6426 95.1383 93.6044 95.0764 93.6378 94.9644C93.6554 94.9055 93.6938 94.8618 93.7522 94.8338C94.0055 94.713 94.5874 94.95 94.6122 94.9602C94.6284 94.9668 94.6391 94.9823 94.6396 94.9999C94.6402 95.0175 94.6303 95.0335 94.6146 95.0412C94.5255 95.0842 94.3367 95.1556 94.1476 95.1964ZM93.8426 94.8967C93.8234 94.901 93.8058 94.9066 93.7903 94.914C93.7551 94.9308 93.733 94.9556 93.7228 94.9898C93.6991 95.0698 93.7287 95.0948 93.7386 95.1031C93.8394 95.189 94.2138 95.1098 94.4778 95.0042C94.2988 94.9412 94.0092 94.8607 93.8426 94.8967Z" fill="#A01F5D"/>
<path d="M94.603 95.0447C94.5958 95.0463 94.5886 95.0461 94.5814 95.0439C94.3694 94.9821 93.9158 94.6599 93.9102 94.4471C93.9091 94.4085 93.9227 94.3386 94.0238 94.3034C94.0894 94.2805 94.1553 94.2858 94.2206 94.3191C94.4713 94.4471 94.6297 94.9663 94.6363 94.9885C94.6411 95.0042 94.6369 95.0213 94.6254 95.0327C94.6193 95.0389 94.6113 95.0429 94.603 95.0447ZM94.0723 94.3818C94.0659 94.3831 94.0595 94.385 94.0529 94.3871C93.9979 94.4063 93.9987 94.4333 93.999 94.4447C94.0022 94.5706 94.3014 94.8234 94.5211 94.9258C94.4662 94.7759 94.3411 94.4799 94.1803 94.3981C94.1435 94.3794 94.1081 94.3741 94.0723 94.3818Z" fill="#A01F5D"/>
<path d="M80.2983 95.5112C80.0575 95.5112 79.825 95.4781 79.7471 95.3698C79.7199 95.332 79.6983 95.2674 79.7509 95.1757C79.7802 95.1242 79.8274 95.0893 79.8914 95.072C80.2037 94.9872 80.8594 95.3605 80.8871 95.3765C80.9031 95.3858 80.9117 95.404 80.9087 95.4221C80.9058 95.4402 80.8917 95.4549 80.8735 95.4586C80.7538 95.4824 80.5226 95.5112 80.2983 95.5112ZM80.0007 95.1474C79.9695 95.1474 79.9405 95.1506 79.9149 95.1576C79.8738 95.1688 79.8455 95.189 79.8279 95.2197C79.7965 95.2749 79.8077 95.3024 79.8191 95.3181C79.9063 95.4394 80.3805 95.4421 80.7293 95.3928C80.5554 95.3034 80.2199 95.1474 80.0007 95.1474Z" fill="#A01F5D"/>
<path d="M80.8656 95.4594C80.8595 95.4594 80.8533 95.4581 80.8475 95.4554C80.6211 95.3538 80.1728 94.9482 80.2069 94.7362C80.2149 94.6864 80.2501 94.6242 80.3723 94.612C80.4635 94.6026 80.5459 94.6285 80.6187 94.6882C80.8573 94.8842 80.9077 95.3896 80.9099 95.4109C80.9115 95.4266 80.9045 95.4421 80.8917 95.4512C80.884 95.4568 80.8747 95.4594 80.8656 95.4594ZM80.408 94.6989C80.3992 94.6989 80.3904 94.6997 80.3813 94.7005C80.3013 94.7085 80.2963 94.74 80.2947 94.7504C80.2741 94.8776 80.5789 95.1962 80.8099 95.3352C80.7859 95.1877 80.7189 94.8853 80.5621 94.7568C80.5149 94.7181 80.4643 94.6989 80.408 94.6989Z" fill="#A01F5D"/>
<path d="M82.9279 95.4149H81.0521L80.8655 91.0714H82.7409L82.9279 95.4149Z" fill="#FF7ABA"/>
<path d="M96.6951 94.5466L94.862 94.9434L93.0215 90.8978L94.8546 90.5007L96.6951 94.5466Z" fill="#FF7ABA"/>
<path d="M94.6845 94.7594L96.744 94.3135C96.8189 94.2973 96.8952 94.3354 96.9272 94.405L97.6421 95.9559C97.7163 96.1167 97.6181 96.3058 97.4443 96.3402C96.7227 96.4834 96.364 96.517 95.4584 96.713C94.9013 96.8335 93.6432 97.1399 92.8739 97.3066C92.1213 97.4695 91.8395 96.7341 92.1395 96.597C93.4851 95.9823 94.0469 95.4407 94.4112 94.9365C94.4768 94.8455 94.5749 94.7831 94.6845 94.7594Z" fill="#36252D"/>
<path d="M81.0651 95.1979H83.1136C83.1904 95.1979 83.2565 95.2509 83.2731 95.3259L83.6437 96.9931C83.6821 97.1659 83.5509 97.3296 83.3739 97.3267C82.6349 97.3141 81.5675 97.2709 80.6387 97.2709C79.5528 97.2709 78.6147 97.3301 77.3413 97.3301C76.5715 97.3301 76.3576 96.5515 76.68 96.4811C78.1475 96.16 79.3453 96.1259 80.6133 95.344C80.7512 95.2589 80.9032 95.1979 81.0651 95.1979Z" fill="#36252D"/>
<path d="M88.645 31.3951C90.4028 31.798 91.8524 36.286 91.8524 36.286L88.322 38.9767C88.322 38.9767 87.0266 37.7551 86.4498 35.5103C85.8455 33.1583 86.8474 30.9831 88.645 31.3951Z" fill="#A01F5D"/>
<g opacity="0.4">
<path d="M88.645 31.3951C90.4028 31.798 91.8524 36.286 91.8524 36.286L88.322 38.9767C88.322 38.9767 87.0266 37.7551 86.4498 35.5103C85.8455 33.1583 86.8474 30.9831 88.645 31.3951Z" fill="#A01F5D"/>
</g>
<path d="M79.4019 36.7512C78.9633 37.2245 78.5257 37.6456 78.0726 38.0789C77.8478 38.2941 77.6179 38.5058 77.383 38.7128L77.0289 39.0229L76.9395 39.1C76.8963 39.137 76.8438 39.181 76.7875 39.2242C76.6702 39.3109 76.5417 39.412 76.2723 39.5282C76.1297 39.5832 75.9462 39.656 75.6238 39.6624C75.4705 39.6648 75.2625 39.6381 75.0638 39.5629C74.8609 39.4877 74.6646 39.3576 74.5302 39.2237C74.2513 38.9434 74.167 38.6978 74.1121 38.5333C74.0611 38.3637 74.0465 38.2426 74.0361 38.1368C74.0193 37.9298 74.0299 37.7896 74.0414 37.66C74.0539 37.532 74.0715 37.4213 74.091 37.3168C74.1694 36.9056 74.2801 36.5738 74.4006 36.2416C74.5225 35.9125 74.6577 35.597 74.815 35.2778C74.9843 34.9381 75.1478 34.692 75.3107 34.4077C75.9697 33.3064 76.7427 32.3008 77.5643 31.3525C78.4038 30.4109 79.2849 29.5498 80.2982 28.761L81.2798 29.7712C80.5902 30.6933 79.9123 31.6821 79.2857 32.657C78.6598 33.6392 78.0793 34.6389 77.5795 35.6557C77.4643 35.9069 77.3225 36.1821 77.2425 36.3922C77.1489 36.6218 77.063 36.8685 76.9923 37.1114C76.9225 37.3514 76.8662 37.6016 76.8409 37.785C76.835 37.8293 76.8321 37.868 76.8321 37.8904C76.8313 37.9109 76.8369 37.9224 76.8342 37.8658C76.8315 37.8349 76.8286 37.7888 76.7998 37.6912C76.7673 37.5984 76.7166 37.4224 76.4921 37.1952C76.3838 37.0888 76.2211 36.9773 76.0529 36.917C75.8899 36.8533 75.7193 36.8346 75.6038 36.8352C75.3571 36.8408 75.2467 36.8912 75.1737 36.9173C75.043 36.9738 75.0403 36.989 75.0417 36.9832L75.1441 36.8898L75.4643 36.5962L76.1017 35.9992C76.5235 35.6016 76.9483 35.1776 77.3491 34.7842L79.4019 36.7512Z" fill="#FF7ABA"/>
<g opacity="0.2">
<path d="M87.1388 34.6954C88.0937 35.6402 88.4049 37.361 88.479 38.8573L88.3233 38.9773C88.3233 38.9773 87.0265 37.7544 86.4494 35.5101C86.4137 35.3698 86.383 35.229 86.3574 35.0912L87.1388 34.6954Z" fill="black"/>
</g>
<path d="M77.5368 33.2759C77.1534 35.3023 76.9136 39.4634 78.0267 47.7039H88.059C88.128 46.1639 87.1606 38.6514 88.6459 31.3951C88.6459 31.3951 86.9262 31.0501 85.2875 30.9711C84.0056 30.9093 82.1496 30.8685 81.0227 30.9714C80.5523 31.0143 80.0907 31.0821 79.6792 31.1549C78.5944 31.3469 77.7416 32.1935 77.5368 33.2759Z" fill="#A01F5D"/>
<g opacity="0.4">
<path d="M77.5368 33.2759C77.1534 35.3023 76.9136 39.4634 78.0267 47.7039H88.059C88.128 46.1639 87.1606 38.6514 88.6459 31.3951C88.6459 31.3951 86.9262 31.0501 85.2875 30.9711C84.0056 30.9093 82.1496 30.8685 81.0227 30.9714C80.5523 31.0143 80.0907 31.0821 79.6792 31.1549C78.5944 31.3469 77.7416 32.1935 77.5368 33.2759Z" fill="#A01F5D"/>
</g>
<g opacity="0.2">
<path d="M79.0712 36.2709L77.2584 35.8368C77.2021 36.9347 77.1973 38.2955 77.2789 39.9781C78.1139 39.0283 79.1784 37.5475 79.0712 36.2709Z" fill="black"/>
</g>
<g opacity="0.2">
<path d="M80.8652 91.0725L80.9612 93.3114H82.8375L82.7418 91.0725H80.8652Z" fill="black"/>
</g>
<g opacity="0.2">
<path d="M94.8537 90.5018L93.0195 90.8989L93.9691 92.9842L95.8033 92.5872L94.8537 90.5018Z" fill="black"/>
</g>
<path d="M81.5859 47.704C81.5859 47.704 83.7145 62.0381 84.883 67.4082C86.1627 73.289 93.0246 92.7453 93.0246 92.7453L96.3822 92.0184C96.3822 92.0184 91.5841 76.1629 90.5099 67.9416C89.6849 61.6264 88.0593 47.704 88.0593 47.704H81.5859Z" fill="black"/>
<path d="M92.2209 91.6245C92.2065 91.6277 92.8468 92.8386 92.8468 92.8386L96.6244 92.0207L96.306 90.885L92.2209 91.6245Z" fill="#36252D"/>
<g opacity="0.3">
<path d="M82.9308 52.8112C85.3922 53.2938 85.1319 62.4728 84.8356 67.1936C84.1258 63.8565 83.0868 57.4349 82.377 52.8776C82.5404 52.796 82.7239 52.7704 82.9308 52.8112Z" fill="black"/>
</g>
<path d="M78.0274 47.704C78.0274 47.704 77.769 61.728 77.973 67.448C78.1852 73.3976 80.2634 92.8778 80.2634 92.8778H83.4407C83.4407 92.8778 83.5575 73.7448 83.6988 67.9018C83.853 61.532 84.622 47.704 84.622 47.704H78.0274Z" fill="black"/>
<path d="M79.6512 91.6122C79.6365 91.6122 79.8304 92.9314 79.8304 92.9314H83.6957L83.8 91.7541L79.6512 91.6122Z" fill="#36252D"/>
<path d="M81.4689 33.8911C82.3683 36.3148 77.0843 39.1698 77.0843 39.1698L74.7969 36.229C74.7969 36.229 76.3227 33.1914 78.1955 31.8223C80.5091 30.1308 80.7843 32.046 81.4689 33.8911Z" fill="#A01F5D"/>
<g opacity="0.4">
<path d="M81.4689 33.8911C82.3683 36.3148 77.0843 39.1698 77.0843 39.1698L74.7969 36.229C74.7969 36.229 76.3227 33.1914 78.1955 31.8223C80.5091 30.1308 80.7843 32.046 81.4689 33.8911Z" fill="#A01F5D"/>
</g>
</svg>
