<svg width="24" height="24" viewBox="0 0 24 24" fill="none" xmlns="http://www.w3.org/2000/svg">
<path d="M9.62555 4.45762C7.93547 5.04392 6.47795 6.15675 5.46707 7.63264C4.45619 9.10853 3.94524 10.8697 4.00927 12.6574C4.07329 14.4452 4.70892 16.1653 5.82279 17.5651C6.93666 18.9648 8.47006 19.9706 10.1978 20.4344C11.5984 20.7959 13.0659 20.8117 14.4741 20.4807C15.7498 20.1942 16.9291 19.5812 17.8968 18.702C18.9038 17.7589 19.6348 16.5591 20.0111 15.2317C20.4202 13.7882 20.493 12.2702 20.2239 10.7942H12.3584V14.0569H16.9136C16.8225 14.5773 16.6274 15.074 16.34 15.5172C16.0525 15.9605 15.6786 16.3411 15.2406 16.6365C14.6843 17.0044 14.0573 17.252 13.3997 17.3633C12.7402 17.4859 12.0638 17.4859 11.4043 17.3633C10.7358 17.2251 10.1035 16.9492 9.54758 16.5532C8.65445 15.921 7.98383 15.0228 7.63142 13.9869C7.27305 12.9315 7.27305 11.7874 7.63142 10.7321C7.88227 9.99231 8.29697 9.31877 8.84455 8.76172C9.47119 8.11253 10.2645 7.64849 11.1375 7.4205C12.0105 7.19252 12.9295 7.2094 13.7935 7.4693C14.4685 7.6765 15.0857 8.03851 15.596 8.52649C16.1097 8.01552 16.6224 7.50322 17.1343 6.9896C17.3986 6.71341 17.6866 6.45043 17.947 6.16763C17.168 5.44276 16.2537 4.87872 15.2564 4.50784C13.4403 3.8484 11.4531 3.83068 9.62555 4.45762Z" fill="white"/>
<path d="M9.62357 4.45826C11.451 3.83089 13.4382 3.84815 15.2544 4.50716C16.2519 4.88056 17.1658 5.44732 17.9437 6.17488C17.6794 6.45768 17.4005 6.72198 17.131 6.99685C16.6182 7.5087 16.1059 8.0188 15.5941 8.52713C15.0838 8.03916 14.4665 7.67714 13.7916 7.46994C12.9278 7.20913 12.0089 7.19128 11.1356 7.41833C10.2624 7.64538 9.46858 8.10857 8.84125 8.75707C8.29367 9.31413 7.87898 9.98767 7.62812 10.7274L4.88867 8.60642C5.86923 6.66193 7.567 5.17454 9.62357 4.45826Z" fill="#E33629"/>
<path d="M4.16386 10.7105C4.3111 9.98081 4.55556 9.27412 4.89068 8.60938L7.63013 10.7357C7.27176 11.791 7.27176 12.9351 7.63013 13.9905C6.71742 14.6953 5.80427 15.4036 4.89068 16.1154C4.05173 14.4455 3.79587 12.5428 4.16386 10.7105Z" fill="#F8BD00"/>
<path d="M12.358 10.7931H20.2235C20.4926 12.2691 20.4198 13.7872 20.0108 15.2307C19.6345 16.5581 18.9035 17.7578 17.8964 18.7009C17.0123 18.0111 16.1243 17.3265 15.2402 16.6367C15.6785 16.3411 16.0526 15.96 16.3401 15.5163C16.6275 15.0726 16.8225 14.5754 16.9132 14.0545H12.358C12.3567 12.9683 12.358 11.8807 12.358 10.7931Z" fill="#587DBD"/>
<path d="M4.88867 16.1171C5.80226 15.4124 6.71541 14.704 7.62812 13.9922C7.98124 15.0285 8.65281 15.9267 9.54693 16.5585C10.1046 16.9527 10.7383 17.2263 11.4076 17.362C12.0671 17.4846 12.7435 17.4846 13.403 17.362C14.0606 17.2507 14.6876 17.0031 15.2439 16.6352C16.128 17.325 17.016 18.0095 17.9001 18.6993C16.9326 19.5791 15.7532 20.1925 14.4774 20.4794C13.0692 20.8104 11.6017 20.7946 10.2011 20.4331C9.09326 20.1373 8.0585 19.6159 7.16164 18.9015C6.21236 18.1479 5.43703 17.1981 4.88867 16.1171Z" fill="#319F43"/>
</svg>
