<svg width="24" height="24" viewBox="0 0 24 24" fill="none" xmlns="http://www.w3.org/2000/svg">
<path d="M3 7.125L8.87606 10.4544C11.0424 11.6818 11.9576 11.6818 14.1239 10.4544L20 7.125" stroke="white" stroke-width="1.2" stroke-linejoin="round"/>
<path d="M3.0134 13.4793C3.06897 16.085 3.09676 17.3878 4.05821 18.353C5.01967 19.3181 6.35778 19.3516 9.034 19.4189C10.6834 19.4604 12.3166 19.4604 13.966 19.4189C16.6422 19.3516 17.9803 19.3181 18.9418 18.353C19.9032 17.3878 19.931 16.085 19.9865 13.4793C20.0045 12.6414 20.0045 11.8086 19.9865 10.9707C19.931 8.36503 19.9032 7.06217 18.9418 6.09706C17.9803 5.13195 16.6422 5.09833 13.966 5.03109C12.3166 4.98964 10.6834 4.98964 9.03399 5.03108C6.35778 5.09831 5.01967 5.13193 4.05821 6.09705C3.09675 7.06217 3.06897 8.36502 3.0134 10.9707C2.99553 11.8086 2.99554 12.6414 3.0134 13.4793Z" stroke="white" stroke-width="1.2" stroke-linejoin="round"/>
</svg>
